<?xml version="1.0" encoding="utf-8"?>
<!-- Generator: Adobe Illustrator 23.1.1, SVG Export Plug-In . SVG Version: 6.00 Build 0)  -->
<svg version="1.1" id="Layer_1" xmlns="http://www.w3.org/2000/svg" xmlns:xlink="http://www.w3.org/1999/xlink" x="0px" y="0px"
	 viewBox="0 0 398 100" style="enable-background:new 0 0 398 100;" xml:space="preserve">
<g>
	<polygon points="118.3,78.7 108,78.7 108,15.9 94.9,15.9 94.9,82.5 108.3,82.5 108.3,82.5 118.3,82.5 	"/>
	<g>
		<path d="M136.4,15.9l-15.5,66.6h4l6.7-28.8h13.2l5.5,28.8h13.2l-14.8-66.6H136.4 M132.5,49.8l6.4-27.3l5.2,27.3H132.5z"/>
	</g>
	<polyline points="201.4,15.9 190.8,61.8 181.3,15.9 170.6,15.9 170.6,15.9 166.7,16 166.7,82.5 170.6,82.5 170.6,25.1 173,34.6 
		183.8,82.5 189.4,82.5 190,82.5 202.6,28.8 202.6,82.5 215.8,82.5 215.8,15.9 201.4,15.9 	"/>
	<path d="M233.3,37.2c0,0-0.1,8.7-0.1,12.2c0,3.5,0.1,11.8,0.1,11.8c0,9.8,2.4,17.4,9,17.4c6.6,0,9-7.6,9-17.4c0,0,0.1-8.3,0.1-11.8
		s-0.1-12.2-0.1-12.2c0-9.8-2.4-17.4-9-17.4C235.7,19.8,233.3,27.4,233.3,37.2 M264.6,49.2c0,32.3-18.7,33.3-22.3,33.3
		s-22.3-1-22.3-33.3s18.7-33.3,22.3-33.3C245.9,15.9,264.6,16.9,264.6,49.2"/>
	<path d="M292.2,77.9c10.2,0,9.3-18.2,9.3-18.2c0-5,0-43.4,0-43.8h3.8c0,0.4,0.4,38.8,0.4,43.8c0,0.6,0,1.2,0,1.8
		c-0.1,5.6-0.9,12.1-4.8,16.3c-0.2,0.3-0.5,0.5-0.8,0.8c-4.4,3.8-11.4,4.3-16.8,3.5c-5.5-0.8-10.6-3.8-12.7-9.5
		c-1.6-4.3-1.7-9-1.7-13.5c0,0,0-43.2,0-43.2H282v47.9c0,0,0,0.1,0,0.1C282,64,281.8,77.9,292.2,77.9z"/>
	<path d="M339.4,52.7c1.9-0.8,3.7-1.6,5-3.2c4.1-4.9,4.1-10.3,4.1-15.1c0-9.1-4.3-15.3-12.3-17.8c-0.1,0-0.2-0.1-0.3-0.1
		c0,0,0,0-0.1,0l0,0h0c-0.1,0-0.2,0-0.3-0.1l0,0c-0.1,0-0.2,0-0.3-0.1c0,0,0,0-0.1,0c-0.1,0-0.2,0-0.3,0l0,0c-0.1,0-0.2,0-0.3,0
		c0,0,0,0-0.1,0c-0.1,0-0.2,0-0.3,0h0c-0.1,0-0.2,0-0.3,0c0,0,0,0-0.1,0c-0.1,0-0.2,0-0.3,0h0c-0.1,0-0.2,0-0.3,0h0
		c-0.1,0-0.2,0-0.3,0h0c-0.1,0-0.1,0-0.2,0h0c-0.1,0-0.1,0-0.2,0h0c0,0-0.1,0-0.2,0c0,0,0,0,0,0s-0.1,0-0.2,0h0c0,0-0.1,0-0.1,0l0,0
		c0,0-0.1,0-0.1,0s0,0,0,0s0,0-0.1,0h-7.6l0,0h-13v66.6h13.2V53.7h3.3l8.5,28.7l0,0.1h13.9L339.4,52.7z M326.3,49.8c-0.2,0-3,0-3,0
		c0-3.8,0-29.9,0-29.8c1.1,0,2.5,0.1,3.7,0.3c7,1.4,9.6,8.6,9.7,14.7c0,3.2-0.1,6.7-1.3,9.7c-0.3,0.8-0.9,1.6-1.5,2.3
		c-0.6,0.7-1.2,1.4-2,1.9C330.2,49.8,328.1,49.8,326.3,49.8"/>
	<path d="M85.7,24.3c1.7,2.6,3.6,8.5,3.6,16.9c-3.3,0-8.7,0-11.5,0v-0.7c0-2.7,0-3.2,0-3.2c0-9.9-2.2-17.4-7.1-17.4
		c-6.2,0-8.4,7.5-8.4,17.4v19.5c0,2.8,0,5.1,0,5.1c0,10.1,2.6,17.2,8.9,17.2c6.3,0,8.2-7.1,8.2-17.2l0-0.5c0-2.3,0.1-4.2,0-7.7
		c-3.1,0-6.8,0-9.9,0c0-0.9,0-3,0-3.8c6.8,0,13.7,0,20.5,0c0,11.5,0,21.2,0,32.7c-2.6,0-5.6,0-8.2,0c-0.1-11.1,0.1-7.4-0.1-11.1
		c-0.6,4.1-2.7,8.3-6.3,10.6c-3.9,2.4-9.1,2.3-13.2,0.4c-4.1-2-7.3-5.6-9.3-9.7c-2-4.1-3-8.7-3.6-13.3C49,55.7,48.8,51.9,49,48
		c0.3-9.3,2.3-20.3,9.6-26.9c3.2-3.2,7.5-5.2,12.3-5.2c4.4,0,8.4,1.7,11.5,4.5c0,0,0,0,0.1,0.1C83.6,21.6,84.8,22.8,85.7,24.3z"/>
</g>
</svg>
