<svg width="330" height="80" viewBox="0 0 330 80" xmlns="http://www.w3.org/2000/svg" aria-label="The Cut" role="img"><g fill="#221F20" fill-rule="evenodd"><path d="M151.298 70.076c-2.928 2.119-14.439 7.571-27.565 7.571-23.222 0-37.357-16.962-37.357-38.569 0-21.506 15.75-38.367 39.68-38.367 10.199 0 19.689 2.827 24.838 4.947l2.12 16.458-1.11.303C143.827 9.192 136.96 3.84 125.046 3.84c-20.093 0-29.078 15.045-29.078 35.238 0 20.295 8.785 35.44 27.968 35.44 14.64 0 22.314-8.784 28.27-22.719l1.212.303-2.12 17.974zM183.785 52.01V17.986c0-7.27-.708-10.198-4.241-15.651v-.201h16.759v.2c-3.028 4.747-4.137 8.382-4.137 15.652v33.722c0 16.66 8.984 22.617 20.596 22.617 15.852 0 20.8-11.208 20.8-23.525V19.802c0-7.975-1.212-11.308-7.17-17.467v-.201h16.559l.302.2c-5.249 6.16-6.461 9.493-6.461 17.468V50.7c0 14.438-6.26 26.857-25.444 26.857-14.943 0-27.563-7.37-27.563-25.546M304.969 76.133H288.51v-.2c3.333-5.151 4.04-8.079 4.04-14.946V4.951l-13.128.404c-3.635.202-9.693 10.299-14.135 16.862l-1.11-.404 3.938-19.588h57.147l4.04 19.588-1.212.404c-4.443-6.563-10.399-16.66-14.136-16.862L300.93 4.95v56.036c0 6.967.707 9.795 4.038 14.945v.201zM1 55h65v-1H1z"></path><g><path d="M11.008 44.442H5.53v-.046c.785-1.645 1.024-2.55 1.024-4.766V27.906l-1.932.098c-1.142.093-3.003 2.906-4.169 4.55L0 32.388.93 27h14.677l.955 5.387-.455.168c-1.239-1.645-2.977-4.458-4.166-4.551l-1.933-.098v11.747c0 2.193.213 3.098 1 4.743v.046zM30.478 44.442H25v-.046c.763-1.645 1.002-2.55 1.002-4.766v-7.814c0-2.242-.239-3.124-1.002-4.766V27h5.478v.05c-.787 1.642-1.022 2.548-1.022 4.74v3.217h7.647v-3.191c0-2.218-.214-3.124-1.024-4.766V27h5.504v.05c-.76 1.642-1.026 2.548-1.026 4.74v7.863c0 2.193.265 3.098 1.026 4.743v.046H36.08v-.046c.81-1.645 1.024-2.55 1.024-4.766v-3.646h-7.647v3.67c0 2.192.235 3.097 1.022 4.742v.046zM63.77 44.442H51v-.046c.666-1.621 1.001-2.599 1.001-4.553v-8.241c0-1.957-.335-2.933-1.001-4.552V27h11.7l.953 4.553-.454.166c-1.215-1.216-2.86-3.575-3.953-3.644l-3.79-.192v7.266h1.786c1.168 0 2.265-1.548 2.908-2.429h.476v5.863h-.476c-.643-.859-1.74-2.433-2.93-2.433h-1.764v7.41l4.074-.166c1.763-.073 3.67-2.715 4.935-4.504l.45.168-1.145 5.384z"></path></g></g></svg>